HIERARCHY
ROOT Hips
{
	OFFSET 0.000000 0.000000 0.000000 
	CHANNELS 6 Xposition Yposition Zposition Zrotation Yrotation Xrotation
	JOINT LeftUpLeg
	{
		OFFSET 1.363060 -1.794630 0.839290 
		CHANNELS 3 Zrotation Yrotation Xrotation
		JOINT LeftLeg
		{
			OFFSET 2.448110 -6.726130 0.000000 
			CHANNELS 3 Zrotation Yrotation Xrotation
			JOINT LeftFoot
			{
				OFFSET 2.562200 -7.039590 0.000000 
				CHANNELS 3 Zrotation Yrotation Xrotation
				JOINT LeftToeBase
				{
					OFFSET 0.157640 -0.433110 2.322550 
					CHANNELS 3 Zrotation Yrotation Xrotation
					End Site
					{
						OFFSET 0.000000 0.000000 0.000000 
					}
				}
			}
		}
	}
	JOINT RightUpLeg
	{
		OFFSET -1.305520 -1.794630 0.839290 
		CHANNELS 3 Zrotation Yrotation Xrotation
		JOINT RightLeg
		{
			OFFSET -2.542530 -6.985550 0.000000 
			CHANNELS 3 Zrotation Yrotation Xrotation
			JOINT RightFoot
			{
				OFFSET -2.568260 -7.056230 0.000000 
				CHANNELS 3 Zrotation Yrotation Xrotation
				JOINT RightToeBase
				{
					OFFSET -0.164730 -0.452590 2.363150 
					CHANNELS 3 Zrotation Yrotation Xrotation
					End Site
					{
						OFFSET 0.000000 0.000000 0.000000 
					}
				}
			}
		}
	}
	JOINT Spine
	{
		OFFSET 0.028270 2.035590 -0.193380 
		CHANNELS 3 Zrotation Yrotation Xrotation
		JOINT Spine1
		{
			OFFSET 0.056720 2.048850 -0.042750 
			CHANNELS 3 Zrotation Yrotation Xrotation
			JOINT Neck1
			{
				OFFSET -0.054170 1.746240 0.172020 
				CHANNELS 3 Zrotation Yrotation Xrotation
				JOINT Head
				{
					OFFSET 0.104070 1.761360 -0.123970 
					CHANNELS 3 Zrotation Yrotation Xrotation
					End Site
					{
						OFFSET 0.000000 0.000000 0.000000 
					}
				}
			}
			JOINT LeftArm
			{
				OFFSET 3.362410 1.200890 -0.311210 
				CHANNELS 3 Zrotation Yrotation Xrotation
				JOINT LeftForeArm
				{
					OFFSET 4.983000 -0.000000 -0.000000 
					CHANNELS 3 Zrotation Yrotation Xrotation
					JOINT LeftHand
					{
						OFFSET 3.483560 -0.000000 -0.000000 
						CHANNELS 3 Zrotation Yrotation Xrotation
						JOINT LeftHandIndex1
						{
							OFFSET 0.715260 -0.000000 -0.000000 
							CHANNELS 3 Zrotation Yrotation Xrotation
							End Site
							{
								OFFSET 0.000000 0.000000 0.000000 
							}
						}
					}
				}
			}
			JOINT RightArm
			{
				OFFSET -3.136600 1.374050 -0.404650 
				CHANNELS 3 Zrotation Yrotation Xrotation
				JOINT RightForeArm
				{
					OFFSET -5.241900 -0.000000 -0.000000 
					CHANNELS 3 Zrotation Yrotation Xrotation
					JOINT RightHand
					{
						OFFSET -3.444170 -0.000000 -0.000000 
						CHANNELS 3 Zrotation Yrotation Xrotation
						JOINT RightHandIndex1
						{
							OFFSET -0.622530 -0.000000 -0.000000 
							CHANNELS 3 Zrotation Yrotation Xrotation
							End Site
							{
								OFFSET 0.000000 0.000000 0.000000 
							}
						}
					}
				}
			}
		}
	}
}
MOTION
Frames: 9
Frame Time: 0.041667
-3.979549 17.809317 1.268639 1.295247 9.093434 2.926555 -8.258133 -9.038793 -11.950779 0.104190 7.544170 23.557338 0.405189 0.067758 1.925066 1.502800 -7.742900 -21.935900 12.379681 0.073273 -16.296241 -2.205118 -10.554165 32.157871 -0.859612 0.759236 -9.007646 -0.251900 -3.229600 8.918600 -0.078024 0.439434 -1.428470 2.445100 0.484648 0.010167 4.509484 -1.190298 13.685926 3.774700 -1.067300 12.604500 -18.565869 9.091552 -29.224514 11.373367 -22.513432 -4.352141 -1.027777 -3.116469 -5.009292 -7.125000 0.000000 0.000000 26.685145 -18.951565 -40.926619 -15.273861 23.294141 -5.348252 2.253731 0.401217 9.441043 7.125000 0.000000 0.000000 
-3.947575 17.808103 1.268943 1.297150 9.056565 2.752590 -8.391808 -8.881388 -11.795051 0.103231 7.535059 23.552027 0.427266 -0.027516 1.893023 1.503800 -7.745300 -21.943200 12.278336 0.110811 -16.080252 -2.200618 -10.543048 32.127009 -0.855124 0.727821 -9.050622 -0.270900 -3.347800 9.248600 -0.099843 0.397840 -1.493176 2.505546 0.462013 -0.138732 4.533588 -1.128457 13.754612 3.804700 -1.042800 12.617000 -17.243847 9.011703 -29.032079 11.348852 -22.364655 -4.367033 -1.073242 -3.160750 -4.866754 -7.125000 0.000000 0.000000 25.285413 -18.857729 -40.681186 -15.323645 23.321864 -5.421575 2.280074 0.430766 9.563178 7.125000 0.000000 0.000000 
-3.912970 17.809620 1.267931 1.388087 8.974091 2.696156 -8.631748 -8.575453 -11.802340 0.106515 7.536063 23.580481 0.472829 -0.219350 1.869793 1.534000 -7.819300 -22.166500 12.080523 0.246611 -15.940822 -2.187862 -10.528578 32.070151 -0.795238 0.466616 -9.076788 -0.234700 -3.118200 8.608000 -0.133280 0.342856 -1.582683 2.569088 0.435265 -0.264857 4.516724 -1.085962 13.790938 3.800400 -1.027300 12.589000 -16.008389 8.972676 -28.568941 11.416899 -22.350724 -4.428469 -1.107787 -3.241382 -5.160405 -7.125000 0.000000 0.000000 23.848769 -18.668727 -40.293711 -15.359407 23.334995 -5.491925 2.299887 0.441330 9.674869 7.125000 0.000000 0.000000 
-3.877961 17.813668 1.269348 1.412184 8.784768 2.653396 -8.801981 -8.303246 -11.801938 0.113886 7.543846 23.620960 0.495537 -0.313972 1.785035 1.524500 -7.796200 -22.096600 11.947647 0.471173 -15.793105 -2.169788 -10.508457 31.998477 -0.732188 0.200143 -9.097253 -0.198600 -2.869400 7.915200 -0.148264 0.353178 -1.630513 2.642913 0.436298 -0.233128 4.420211 -1.019102 13.750075 3.756000 -1.001000 12.539200 -14.772282 8.695279 -28.468638 11.399148 -22.199013 -4.440906 -1.156735 -3.305906 -5.266656 -7.125000 0.000000 0.000000 22.397771 -18.345901 -40.009796 -15.370616 23.309299 -5.550322 2.326905 0.447739 9.878825 7.125000 0.000000 0.000000 
-3.840725 17.817816 1.271472 1.426682 8.620739 2.616029 -8.970766 -8.173181 -11.710587 0.118900 7.548111 23.648571 0.487867 -0.288602 1.623837 1.491500 -7.715200 -21.852300 11.804016 0.565250 -15.697764 -2.154745 -10.492765 31.931623 -0.698902 0.079069 -9.022051 -0.183500 -2.759000 7.608500 -0.134684 0.370328 -1.550395 2.754104 0.425633 0.161057 4.413475 -1.004158 13.720932 3.777600 -1.002700 12.524600 -13.668542 8.166768 -28.821896 11.324780 -21.973585 -4.425094 -1.198902 -3.343565 -5.061566 -7.125000 0.000000 0.000000 21.008771 -17.813043 -40.033686 -15.418571 23.313935 -5.625942 2.356073 0.457016 10.321387 7.125000 0.000000 0.000000 
-3.802478 17.818828 1.272889 1.554361 8.498211 2.592748 -9.276254 -8.059263 -11.604416 0.119659 7.544466 23.662670 0.465640 -0.217672 1.460743 1.499300 -7.734400 -21.910300 11.523432 0.607022 -15.626719 -2.144702 -10.484518 31.874873 -0.696915 0.082901 -8.930376 -0.188300 -2.794800 7.707900 -0.178760 0.343592 -1.478720 2.808891 0.394385 0.512599 4.569935 -1.018676 13.723608 3.863000 -0.996400 12.533700 -12.544002 7.677409 -29.165296 11.282250 -21.787733 -4.426384 -1.231903 -3.384883 -4.891676 -7.125000 0.000000 0.000000 19.718521 -17.251012 -40.045378 -15.480375 23.341131 -5.713984 2.368431 0.452290 10.983413 7.125000 0.000000 0.000000 
-3.763117 17.817917 1.271776 1.646829 8.365863 2.608962 -9.530319 -8.004032 -11.552840 0.116499 7.534948 23.653415 0.432324 -0.098782 1.294610 1.501100 -7.738700 -21.923100 11.285526 0.742690 -15.591004 -2.134992 -10.478833 31.830375 -0.672502 -0.010558 -8.872827 -0.168800 -2.647000 7.297300 -0.247543 0.322228 -1.496149 2.758020 0.379040 0.657934 4.616945 -0.956088 13.555087 3.872000 -0.945000 12.440200 -11.373339 7.274848 -29.053569 11.330273 -21.723827 -4.468911 -1.287542 -3.454122 -5.216301 -7.125000 0.000000 0.000000 18.430283 -16.690316 -40.226615 -15.446648 23.243626 -5.751680 2.366022 0.404821 12.272610 7.125000 0.000000 0.000000 
-3.728310 17.815590 1.268336 1.659024 8.201667 2.562278 -9.672897 -7.905346 -11.514466 0.114889 7.527838 23.643608 0.413418 -0.029803 1.210635 1.491900 -7.716100 -21.855100 11.160858 1.005973 -15.482345 -2.129543 -10.477947 31.818601 -0.625290 -0.224512 -8.953831 -0.146100 -2.463400 6.788100 -0.260802 0.310009 -1.521302 2.801559 0.366466 0.745186 4.628290 -1.011287 13.645743 3.870500 -0.974200 12.438400 -10.282111 6.837013 -28.918177 11.406119 -21.700433 -4.525302 -1.337439 -3.546072 -5.557411 -7.125000 0.000000 0.000000 17.109645 -16.048601 -40.185742 -15.448998 23.207203 -5.822735 2.327052 0.347242 13.244950 7.125000 0.000000 0.000000 
-3.693807 17.817411 1.265907 1.640385 8.006249 2.537805 -9.779580 -7.714792 -11.529226 0.118179 7.528948 23.656062 0.413696 -0.032665 1.160523 1.488100 -7.706600 -21.826500 11.069646 1.227232 -15.399922 -2.123641 -10.474364 31.801739 -0.589619 -0.382680 -9.009240 -0.134400 -2.362900 6.509800 -0.240354 0.294535 -1.572527 2.917364 0.352946 0.772783 4.625711 -0.873625 13.777621 3.885100 -0.914400 12.478900 -9.295874 6.342918 -29.011057 11.437236 -21.615908 -4.558084 -1.382124 -3.599521 -5.275538 -7.125000 0.000000 0.000000 15.832096 -15.407317 -39.472898 -15.567444 23.331642 -5.958617 2.321720 0.363065 13.194094 7.125000 0.000000 0.000000 
